<svg width="1440" height="120" viewBox="0 0 1440 120" xmlns="http://www.w3.org/2000/svg">
  <path d="M0,64 C120,100 240,120 360,100 C480,80 600,20 720,20 C840,20 960,80 1080,100 C1200,120 1320,100 1440,64 L1440,120 L0,120 Z" 
        fill="#6d9dc5" 
        fill-opacity="0.3"/>
  <path d="M0,44 C160,80 320,100 480,80 C640,60 800,0 960,0 C1120,0 1280,60 1440,80 L1440,120 L0,120 Z" 
        fill="#6d9dc5" 
        fill-opacity="0.2"/>
  <path d="M0,84 C180,60 360,20 540,40 C720,60 900,120 1080,120 C1260,120 1440,60 1440,30 L1440,120 L0,120 Z" 
        fill="#6d9dc5" 
        fill-opacity="0.1"/>
</svg>
